<?xml version="1.0" encoding="UTF-8"?>
<svg width="14px" height="14px" viewBox="0 0 14 14" version="1.1" xmlns="http://www.w3.org/2000/svg" xmlns:xlink="http://www.w3.org/1999/xlink">
    <!-- Generator: Sketch 54.1 (76490) - https://sketchapp.com -->
    <title>jtsz</title>
    <desc>Created with Sketch.</desc>
    <g id="2-1-园务管理" stroke="none" stroke-width="1" fill="none" fill-rule="evenodd">
        <g id="1-1-26-幼儿管理-文件夹上传" transform="translate(-1802.000000, -138.000000)" fill="#000000">
            <g id="编组-7" transform="translate(1420.000000, 61.000000)">
                <g id="编组-17复制" transform="translate(382.000000, 74.000000)">
                    <g id="列表" transform="translate(0.000000, 3.000000)">
                        <path d="M6,1.08295844 L6,1 C6,0.44771525 6.44771525,1.01453063e-16 7,0 C7.55228475,-1.01453063e-16 8,0.44771525 8,1 L8,1.08295844 C8.37739198,1.14627282 8.74283785,1.24481726 9.09284023,1.37509439 L9.1339746,1.30384758 C9.41011697,0.825554954 10.0217074,0.661679799 10.5,0.937822174 C10.9782926,1.21396455 11.1421678,1.82555495 10.8660254,2.30384758 L10.8241473,2.37638264 C11.115012,2.61722507 11.3827749,2.88498797 11.6236174,3.17585274 L11.6961524,3.1339746 C12.174445,2.85783222 12.7860355,3.02170738 13.0621778,3.5 C13.3383202,3.97829262 13.174445,4.58988303 12.6961524,4.8660254 L12.6249056,4.90715977 C12.7551827,5.25716215 12.8537272,5.62260802 12.9170416,6 L13,6 C13.5522847,6 14,6.44771525 14,7 C14,7.55228475 13.5522847,8 13,8 L12.9170416,8 C12.8537272,8.37739198 12.7551827,8.74283785 12.6249056,9.09284023 L12.6961524,9.1339746 C13.174445,9.41011697 13.3383202,10.0217074 13.0621778,10.5 C12.7860355,10.9782926 12.174445,11.1421678 11.6961524,10.8660254 L11.6236174,10.8241473 C11.3827749,11.115012 11.115012,11.3827749 10.8241473,11.6236174 L10.8660254,11.6961524 C11.1421678,12.174445 10.9782926,12.7860355 10.5,13.0621778 C10.0217074,13.3383202 9.41011697,13.174445 9.1339746,12.6961524 L9.09284023,12.6249056 C8.74283785,12.7551827 8.37739198,12.8537272 8,12.9170416 L8,13 C8,13.5522847 7.55228475,14 7,14 C6.44771525,14 6,13.5522847 6,13 L6,12.9170416 C5.62260802,12.8537272 5.25716215,12.7551827 4.90715977,12.6249056 L4.8660254,12.6961524 C4.58988303,13.174445 3.97829262,13.3383202 3.5,13.0621778 C3.02170738,12.7860355 2.85783222,12.174445 3.1339746,11.6961524 L3.17585274,11.6236174 C2.88498797,11.3827749 2.61722507,11.115012 2.37638264,10.8241473 L2.30384758,10.8660254 C1.82555495,11.1421678 1.21396455,10.9782926 0.937822174,10.5 C0.661679799,10.0217074 0.825554954,9.41011697 1.30384758,9.1339746 L1.37509439,9.09284023 C1.24481726,8.74283785 1.14627282,8.37739198 1.08295844,8 L1,8 C0.44771525,8 0,7.55228475 0,7 C0,6.44771525 0.44771525,6 1,6 L1.08295844,6 C1.14627282,5.62260802 1.24481726,5.25716215 1.37509439,4.90715977 L1.30384758,4.8660254 C0.825554954,4.58988303 0.661679799,3.97829262 0.937822174,3.5 C1.21396455,3.02170738 1.82555495,2.85783222 2.30384758,3.1339746 L2.37638264,3.17585274 C2.61722507,2.88498797 2.88498797,2.61722507 3.17585274,2.37638264 L3.1339746,2.30384758 C2.85783222,1.82555495 3.02170738,1.21396455 3.5,0.937822174 C3.97829262,0.661679799 4.58988303,0.825554954 4.8660254,1.30384758 L4.90715977,1.37509439 C5.25716215,1.24481726 5.62260802,1.14627282 6,1.08295844 Z M7,9 C8.1045695,9 9,8.1045695 9,7 C9,5.8954305 8.1045695,5 7,5 C5.8954305,5 5,5.8954305 5,7 C5,8.1045695 5.8954305,9 7,9 Z" id="jtsz"></path>
                    </g>
                </g>
            </g>
        </g>
    </g>
</svg>