<?xml version="1.0" encoding="UTF-8"?>
<svg width="20px" height="19px" viewBox="0 0 20 19" version="1.1" xmlns="http://www.w3.org/2000/svg" xmlns:xlink="http://www.w3.org/1999/xlink">
    <!-- Generator: Sketch 55.2 (78181) - https://sketchapp.com -->
    <title>编组 15</title>
    <desc>Created with Sketch.</desc>
    <g id="组件" stroke="none" stroke-width="1" fill="none" fill-rule="evenodd">
        <g id="头部/招生/单校" transform="translate(-721.000000, -21.000000)">
            <g id="header" transform="translate(201.000000, 0.000000)">
                <g id="编组-8备份" transform="translate(513.000000, 13.000000)">
                    <g id="编组-15" transform="translate(17.000000, 17.000000) rotate(45.000000) translate(-17.000000, -17.000000) translate(5.000000, 5.000000)">
                        <path d="M4.14326136,9.02177439 L11.8523553,12.182326 L18.4203345,6.58313943 C19.6554806,8.045606 20.4,9.93585709 20.4,12 C20.4,16.6391919 16.6391919,20.4 12,20.4 C7.3608081,20.4 3.6,16.6391919 3.6,12 C3.6,10.9512712 3.79218652,9.94742991 4.14326136,9.02177439 Z" id="形状结合" fill="#FFF3E3"></path>
                        <path d="M14.8787914,21.2810468 C18.5310796,19.9882225 21.0218706,16.5242275 21.0218706,12.586752 C21.0218706,7.49436172 16.8936727,3.36616376 11.8012824,3.36616376 C7.88822377,3.36616376 4.44099577,5.82624371 3.12970346,9.44581255 C2.98861597,9.83525728 3.18994929,10.2653386 3.57939402,10.4064261 C3.96883875,10.5475136 4.39892009,10.3461803 4.54000758,9.95673554 C5.63788507,6.92625703 8.52462507,4.86616376 11.8012824,4.86616376 C16.0652455,4.86616376 19.5218706,8.32278885 19.5218706,12.586752 C19.5218706,15.883831 17.4360403,18.7846388 14.3782596,19.8670214 C13.9877872,20.0052394 13.7832947,20.4338276 13.9215128,20.8243 C14.0597308,21.2147723 14.488319,21.4192648 14.8787914,21.2810468 Z" id="椭圆形备份-3" fill="#BFBFBF" fill-rule="nonzero" transform="translate(12.053261, 12.345201) rotate(125.000000) translate(-12.053261, -12.345201) "></path>
                        <path d="M4.18076256,8.67114371 C5.53187299,5.24319755 7.64840993,3.22070023 10.5303734,2.60365177 C13.4123368,1.98660331 16.0257081,3.18336466 18.3704873,6.19393583 L11.7891655,11.8292696 L4.18076256,8.67114371 Z" id="路径-17" fill="#F78F0E"></path>
                    </g>
                </g>
            </g>
        </g>
    </g>
</svg>