<?xml version="1.0" encoding="UTF-8"?>
<svg width="20px" height="19px" viewBox="0 0 20 19" version="1.1" xmlns="http://www.w3.org/2000/svg" xmlns:xlink="http://www.w3.org/1999/xlink">
    <!-- Generator: Sketch 55.2 (78181) - https://sketchapp.com -->
    <title>编组 16</title>
    <desc>Created with Sketch.</desc>
    <g id="组件" stroke="none" stroke-width="1" fill="none" fill-rule="evenodd">
        <g id="头部/招生/单校" transform="translate(-825.000000, -20.000000)">
            <g id="header" transform="translate(201.000000, 0.000000)">
                <g id="编组-8备份-2" transform="translate(624.000000, 20.000000)">
                    <g id="编组-16">
                        <path d="M17.2579541,14.7930857 L17.9045802,16.6491858 C18.0862743,17.1707275 17.8107734,17.7408127 17.2892317,17.9225068 C17.1050607,17.9866681 16.9061475,17.9955751 16.7169789,17.9481315 L13.6726869,17.1846207 C12.7952626,17.4810124 11.8468214,17.6428571 10.8571429,17.6428571 C6.35996704,17.6428571 2.71428571,14.3009826 2.71428571,10.1785714 C2.71428571,9.41981001 1.67676272,8.66523127 1.46885298,7.86403608 C1.24025076,6.98310088 1.85929117,6.06335935 2.34506922,5.42857143 C3.81785525,3.50401602 8.09782839,2.71428571 10.8571429,2.71428571 C15.3543187,2.71428571 19,6.05616026 19,10.1785714 C19,11.9205294 18.3490443,13.5231185 17.2579541,14.7930857 Z" id="形状结合备份" stroke="#BFBFBF" stroke-width="1.5" fill="#FFF3E3"></path>
                        <path d="M5.25074141,14.4440654 L2.71657659,14.7156411 C2.54159967,14.7343926 2.36477286,14.7066373 2.20395566,14.6351784 C1.69925352,14.4109148 1.4719132,13.8199712 1.69617686,13.3152691 L2.08130772,12.4485376 C0.787227191,11.1270044 0,9.37991734 0,7.46428571 C0,3.34187455 3.64568132,0 8.14285714,0 C12.640033,0 16.2857143,3.34187455 16.2857143,7.46428571 C16.2857143,11.5866969 12.640033,14.9285714 8.14285714,14.9285714 C7.12432092,14.9285714 6.14946192,14.7571507 5.25074141,14.4440654 Z M4.75,9.5 C5.87429395,9.5 6.78571429,8.58857967 6.78571429,7.46428571 C6.78571429,6.33999176 5.87429395,5.42857143 4.75,5.42857143 C3.62570605,5.42857143 2.71428571,6.33999176 2.71428571,7.46428571 C2.71428571,8.58857967 3.62570605,9.5 4.75,9.5 Z M11.5357143,9.46799164 C12.6600082,9.46799164 13.5714286,8.55657131 13.5714286,7.43227736 C13.5714286,6.3079834 12.6600082,5.39656307 11.5357143,5.39656307 C10.4114203,5.39656307 9.5,6.3079834 9.5,7.43227736 C9.5,8.55657131 10.4114203,9.46799164 11.5357143,9.46799164 Z" id="形状结合" fill="#F78F0E"></path>
                    </g>
                </g>
            </g>
        </g>
    </g>
</svg>