<?xml version="1.0" encoding="UTF-8"?>
<svg width="21px" height="19px" viewBox="0 0 21 19" version="1.1" xmlns="http://www.w3.org/2000/svg" xmlns:xlink="http://www.w3.org/1999/xlink">
    <!-- Generator: Sketch 55.2 (78181) - https://sketchapp.com -->
    <title>编组 17</title>
    <desc>Created with Sketch.</desc>
    <g id="组件" stroke="none" stroke-width="1" fill="none" fill-rule="evenodd">
        <g id="头部/招生/单校" transform="translate(-926.000000, -21.000000)">
            <g id="header" transform="translate(201.000000, 0.000000)">
                <g id="编组-8备份-3" transform="translate(724.000000, 14.000000)">
                    <g id="编组-17">
                        <path d="M9.05047144,18.9679065 L5.21220588,27.3045721 C5.18303013,27.3679415 5.18165985,27.4406193 5.20842614,27.5050434 C5.26140044,27.6325478 5.40770734,27.6929664 5.53521176,27.6399921 L14.0504827,24.1021504 C14.1113062,24.07688 14.1597001,24.028628 14.1851489,23.967879 L17.7734394,15.4022395 C17.8005843,15.3374416 17.7992121,15.2642126 17.7696586,15.2004771 C17.7115767,15.0752168 17.5629485,15.020758 17.4376882,15.0788399 L9.05047144,18.9679065 Z" id="矩形备份-5" stroke="#BFBFBF" stroke-width="1.5" transform="translate(11.461511, 21.313708) rotate(45.000000) translate(-11.461511, -21.313708) "></path>
                        <path d="M8.92585038,13.2487995 L17.2296159,9.3984284 C17.7306571,9.16610071 18.3251701,9.38393606 18.5574978,9.88497727 C18.6757116,10.139919 18.6812005,10.4328353 18.5726208,10.6920268 L14.9843303,19.2576663 C14.8825351,19.5006624 14.6889596,19.6936705 14.4456656,19.7947519 L5.9303947,23.3325937 C5.42037702,23.5444908 4.8351494,23.3028164 4.62325223,22.7927987 C4.51618703,22.5351023 4.52166817,22.2443911 4.63837115,21.9909137 L8.43816709,13.7378036 C8.53749752,13.5220591 8.71037535,13.3487131 8.92585038,13.2487995 Z" id="矩形备份-4" fill="#FFF3E3" transform="translate(11.568938, 16.313708) rotate(45.000000) translate(-11.568938, -16.313708) "></path>
                        <path d="M8.98124105,8.93509104 L17.2850066,5.0847199 C17.7860478,4.85239221 18.3805608,5.07022757 18.6128884,5.57126877 C18.7311023,5.82621053 18.7365912,6.11912676 18.6280115,6.37831833 L15.0397209,14.9439578 C14.9379258,15.1869539 14.7443502,15.379962 14.5010563,15.4810434 L5.98578537,19.0188852 C5.47576769,19.2307823 4.89054007,18.9891079 4.6786429,18.4790902 C4.5715777,18.2213938 4.57705884,17.9306826 4.69376182,17.6772052 L8.49355776,9.42409511 C8.59288819,9.20835064 8.76576602,9.03500461 8.98124105,8.93509104 Z" id="矩形" fill="#F78F0E" transform="translate(11.624329, 12.000000) rotate(45.000000) translate(-11.624329, -12.000000) "></path>
                    </g>
                </g>
            </g>
        </g>
    </g>
</svg>