<?xml version="1.0" encoding="UTF-8"?>
<svg width="20px" height="20px" viewBox="0 0 20 20" version="1.1" xmlns="http://www.w3.org/2000/svg" xmlns:xlink="http://www.w3.org/1999/xlink">
    <!-- Generator: Sketch 55.2 (78181) - https://sketchapp.com -->
    <title>编组 13</title>
    <desc>Created with Sketch.</desc>
    <g id="组件" stroke="none" stroke-width="1" fill="none" fill-rule="evenodd">
        <g id="头部/招生/单校" transform="translate(-615.000000, -20.000000)">
            <g id="header" transform="translate(201.000000, 0.000000)">
                <g id="编组-8" transform="translate(407.000000, 13.000000)">
                    <g id="编组-13" transform="translate(17.000000, 17.000000) rotate(-29.000000) translate(-17.000000, -17.000000) translate(5.000000, 5.000000)">
                        <g id="编组-14" transform="translate(-0.000000, 0.000000)">
                            <g id="编组-15" transform="translate(-0.000000, 0.000000)">
                                <circle id="椭圆形" fill="#FFF3E3" cx="12" cy="12" r="8.4"></circle>
                                <path d="M12,21.2205882 C17.0923903,21.2205882 21.2205882,17.0923903 21.2205882,12 C21.2205882,6.90760973 17.0923903,2.77941176 12,2.77941176 C6.90760973,2.77941176 2.77941176,6.90760973 2.77941176,12 C2.77941176,12.4142136 3.1151982,12.75 3.52941176,12.75 C3.94362533,12.75 4.27941176,12.4142136 4.27941176,12 C4.27941176,7.73603686 7.73603686,4.27941176 12,4.27941176 C16.2639631,4.27941176 19.7205882,7.73603686 19.7205882,12 C19.7205882,16.2639631 16.2639631,19.7205882 12,19.7205882 C11.5857864,19.7205882 11.25,20.0563747 11.25,20.4705882 C11.25,20.8848018 11.5857864,21.2205882 12,21.2205882 Z" id="椭圆形备份-3" fill="#BFBFBF" fill-rule="nonzero" transform="translate(12.000000, 12.000000) rotate(125.000000) translate(-12.000000, -12.000000) "></path>
                                <path d="M6.3536748,4.30979042 L12.1506638,10.0956445 L14.6155733,10.4317244 L14.1504269,8.10212158 L8.33245169,2.29560248 C7.7849134,1.74914233 6.89805243,1.75001634 6.35159228,2.29755464 C6.34899242,2.30015963 6.34640283,2.30277486 6.34382358,2.30540026 C5.79614522,2.86287967 5.80054321,3.7577213 6.3536748,4.30979042 Z" id="路径-16" fill="#F78F0E" transform="translate(10.275751, 6.159026) rotate(29.000000) translate(-10.275751, -6.159026) "></path>
                            </g>
                        </g>
                    </g>
                </g>
            </g>
        </g>
    </g>
</svg>