<?xml version="1.0" encoding="UTF-8"?>
<svg width="120px" height="120px" viewBox="0 0 120 120" version="1.1" xmlns="http://www.w3.org/2000/svg" xmlns:xlink="http://www.w3.org/1999/xlink">
    <!-- Generator: Sketch 58 (84663) - https://sketch.com -->
    <title>播放@3x</title>
    <desc>Created with Sketch.</desc>
    <g id="培训" stroke="none" stroke-width="1" fill="none" fill-rule="evenodd">
        <g id="2-11--培训-查看课程-观看课程（视频）" transform="translate(-802.000000, -526.000000)">
            <g id="内容" transform="translate(201.000000, 117.000000)">
                <g id="视频" transform="translate(16.000000, 131.000000)">
                    <g id="播放" transform="translate(585.000000, 278.000000)">
                        <circle id="椭圆形" fill-opacity="0.4" fill="#000000" cx="60" cy="60" r="60"></circle>
                        <path d="M45.4789638,41.1428571 L88.2216014,41.1428571 C89.8784556,41.1428571 91.2216014,42.4860029 91.2216014,44.1428571 C91.2216014,44.8006699 91.0053926,45.4402484 90.6062588,45.9631344 L69.1950012,74.0129903 C68.1896899,75.3300002 66.3070765,75.5826818 64.9900666,74.5773705 C64.7762036,74.4141227 64.5852727,74.2228476 64.4224106,74.0086907 L43.0910305,45.9588348 C42.0880937,44.6400157 42.344167,42.7578607 43.6629861,41.7549239 C44.1851175,41.3578529 44.8230014,41.1428571 45.4789638,41.1428571 Z" id="路径-6" fill="#FFFFFF" transform="translate(66.857143, 59.142857) rotate(-90.000000) translate(-66.857143, -59.142857) "></path>
                    </g>
                </g>
            </g>
        </g>
    </g>
</svg>