<?xml version="1.0" encoding="UTF-8"?>
<svg width="120px" height="120px" viewBox="0 0 120 120" version="1.1" xmlns="http://www.w3.org/2000/svg" xmlns:xlink="http://www.w3.org/1999/xlink">
    <!-- Generator: Sketch 58 (84663) - https://sketch.com -->
    <title>播放@3x</title>
    <desc>Created with Sketch.</desc>
    <g id="培训" stroke="none" stroke-width="1" fill="none" fill-rule="evenodd">
        <g id="2-11--培训-查看课程-观看课程（视频）" transform="translate(-802.000000, -526.000000)">
            <g id="内容" transform="translate(201.000000, 117.000000)">
                <g id="视频" transform="translate(16.000000, 131.000000)">
                    <g id="播放" transform="translate(585.000000, 278.000000)">
                        <circle id="椭圆形" fill-opacity="0.4" fill="#000000" cx="60" cy="60" r="60"></circle>
                        <path d="M43.5,36.75 C45.9852814,36.75 48,38.7647186 48,41.25 L48,78.75 C48,81.2352814 45.9852814,83.25 43.5,83.25 C41.0147186,83.25 39,81.2352814 39,78.75 L39,41.25 C39,38.7647186 41.0147186,36.75 43.5,36.75 Z M76.5,36.75 C78.9852814,36.75 81,38.7647186 81,41.25 L81,78.75 C81,81.2352814 78.9852814,83.25 76.5,83.25 C74.0147186,83.25 72,81.2352814 72,78.75 L72,41.25 C72,38.7647186 74.0147186,36.75 76.5,36.75 Z" id="形状结合" fill="#FFFFFF"></path>
                    </g>
                </g>
            </g>
        </g>
    </g>
</svg>